<?xml version="1.0" encoding="iso-8859-1"?>
<!-- Generator: Adobe Illustrator 19.0.0, SVG Export Plug-In . SVG Version: 6.00 Build 0)  -->
<svg version="1.1" id="Capa_1" xmlns="http://www.w3.org/2000/svg" xmlns:xlink="http://www.w3.org/1999/xlink" x="0px" y="0px"
	 viewBox="0 0 507.9 507.9" style="enable-background:new 0 0 507.9 507.9;" xml:space="preserve">
<g>
	<g>
		<path d="M483.4,401.45v-295h-90.1v-81.9H114.7v81.9H24.6v295H0v8.2c0,40.7,33.1,73.7,73.7,73.7h360.5c40.7,0,73.7-33.1,73.7-73.7
			v-8.2H483.4z M306.9,106.85l70-56.9v126.9L306.9,106.85z M365.3,188.35H142.7l71.2-71.2l40.1,32.6l40.1-32.6L365.3,188.35z
			 M362,40.95l-108,87.7l-108-87.7H362z M131.1,49.95l70,56.9l-70,70V49.95z M393.3,204.85v-0.1v-41h32.8v196.6H81.9v-196.5h32.8v41
			H393.3z M41,122.85h73.7v24.6H65.5v229.4h376.9v-229.4h-49.2v-24.6H467v278.6H303.2v16.4h-98.3v-16.4H41V122.85z M434.3,466.95
			H73.7c-28.8,0-52.7-21.4-56.7-49.1h171.5v16.4h131.1v-16.4H491C487,445.55,463.1,466.95,434.3,466.95z"/>
	</g>
</g>
<g>
	<g>
		<rect x="245.8" y="442.45" width="16.4" height="16.4"/>
	</g>
</g>
<g>
	<g>
		<rect x="278.6" y="442.45" width="16.4" height="16.4"/>
	</g>
</g>
<g>
	<g>
		<rect x="213" y="442.45" width="16.4" height="16.4"/>
	</g>
</g>
<g>
	<g>
		<rect x="245.8" y="221.15" width="16.4" height="49.2"/>
	</g>
</g>
<g>
	<g>
		<rect x="311.4" y="253.95" width="16.4" height="49.2"/>
	</g>
</g>
<g>
	<g>
		<rect x="180.3" y="253.95" width="16.4" height="49.2"/>
	</g>
</g>
<g>
</g>
<g>
</g>
<g>
</g>
<g>
</g>
<g>
</g>
<g>
</g>
<g>
</g>
<g>
</g>
<g>
</g>
<g>
</g>
<g>
</g>
<g>
</g>
<g>
</g>
<g>
</g>
<g>
</g>
</svg>
